<svg aria-roledescription="flowchart-v2" role="graphics-document document" viewBox="0 0 1302.7265625 1924" height="1924" class="flowchart" xmlns="http://www.w3.org/2000/svg" width="1302.7265625" id="container"><style>#container{font-family:"trebuchet ms",verdana,arial,sans-serif;font-size:16px;fill:#333;}@keyframes edge-animation-frame{from{stroke-dashoffset:0;}}@keyframes dash{to{stroke-dashoffset:0;}}#container .edge-animation-slow{stroke-dasharray:9,5!important;stroke-dashoffset:900;animation:dash 50s linear infinite;stroke-linecap:round;}#container .edge-animation-fast{stroke-dasharray:9,5!important;stroke-dashoffset:900;animation:dash 20s linear infinite;stroke-linecap:round;}#container .error-icon{fill:#552222;}#container .error-text{fill:#552222;stroke:#552222;}#container .edge-thickness-normal{stroke-width:1px;}#container .edge-thickness-thick{stroke-width:3.5px;}#container .edge-pattern-solid{stroke-dasharray:0;}#container .edge-thickness-invisible{stroke-width:0;fill:none;}#container .edge-pattern-dashed{stroke-dasharray:3;}#container .edge-pattern-dotted{stroke-dasharray:2;}#container .marker{fill:#333333;stroke:#333333;}#container .marker.cross{stroke:#333333;}#container svg{font-family:"trebuchet ms",verdana,arial,sans-serif;font-size:16px;}#container p{margin:0;}#container .label{font-family:"trebuchet ms",verdana,arial,sans-serif;color:#333;}#container .cluster-label text{fill:#333;}#container .cluster-label span{color:#333;}#container .cluster-label span p{background-color:transparent;}#container .label text,#container span{fill:#333;color:#333;}#container .node rect,#container .node circle,#container .node ellipse,#container .node polygon,#container .node path{fill:#ECECFF;stroke:#9370DB;stroke-width:1px;}#container .rough-node .label text,#container .node .label text,#container .image-shape .label,#container .icon-shape .label{text-anchor:middle;}#container .node .katex path{fill:#000;stroke:#000;stroke-width:1px;}#container .rough-node .label,#container .node .label,#container .image-shape .label,#container .icon-shape .label{text-align:center;}#container .node.clickable{cursor:pointer;}#container .root .anchor path{fill:#333333!important;stroke-width:0;stroke:#333333;}#container .arrowheadPath{fill:#333333;}#container .edgePath .path{stroke:#333333;stroke-width:2.0px;}#container .flowchart-link{stroke:#333333;fill:none;}#container .edgeLabel{background-color:rgba(232,232,232, 0.8);text-align:center;}#container .edgeLabel p{background-color:rgba(232,232,232, 0.8);}#container .edgeLabel rect{opacity:0.5;background-color:rgba(232,232,232, 0.8);fill:rgba(232,232,232, 0.8);}#container .labelBkg{background-color:rgba(232, 232, 232, 0.5);}#container .cluster rect{fill:#ffffde;stroke:#aaaa33;stroke-width:1px;}#container .cluster text{fill:#333;}#container .cluster span{color:#333;}#container div.mermaidTooltip{position:absolute;text-align:center;max-width:200px;padding:2px;font-family:"trebuchet ms",verdana,arial,sans-serif;font-size:12px;background:hsl(80, 100%, 96.2745098039%);border:1px solid #aaaa33;border-radius:2px;pointer-events:none;z-index:100;}#container .flowchartTitleText{text-anchor:middle;font-size:18px;fill:#333;}#container rect.text{fill:none;stroke-width:0;}#container .icon-shape,#container .image-shape{background-color:rgba(232,232,232, 0.8);text-align:center;}#container .icon-shape p,#container .image-shape p{background-color:rgba(232,232,232, 0.8);padding:2px;}#container .icon-shape rect,#container .image-shape rect{opacity:0.5;background-color:rgba(232,232,232, 0.8);fill:rgba(232,232,232, 0.8);}#container :root{--mermaid-font-family:"trebuchet ms",verdana,arial,sans-serif;}</style><g><marker orient="auto" markerHeight="8" markerWidth="8" markerUnits="userSpaceOnUse" refY="5" refX="5" viewBox="0 0 10 10" class="marker flowchart-v2" id="container_flowchart-v2-pointEnd"><path style="stroke-width: 1; stroke-dasharray: 1, 0;" class="arrowMarkerPath" d="M 0 0 L 10 5 L 0 10 z"></path></marker><marker orient="auto" markerHeight="8" markerWidth="8" markerUnits="userSpaceOnUse" refY="5" refX="4.5" viewBox="0 0 10 10" class="marker flowchart-v2" id="container_flowchart-v2-pointStart"><path style="stroke-width: 1; stroke-dasharray: 1, 0;" class="arrowMarkerPath" d="M 0 5 L 10 10 L 10 0 z"></path></marker><marker orient="auto" markerHeight="11" markerWidth="11" markerUnits="userSpaceOnUse" refY="5" refX="11" viewBox="0 0 10 10" class="marker flowchart-v2" id="container_flowchart-v2-circleEnd"><circle style="stroke-width: 1; stroke-dasharray: 1, 0;" class="arrowMarkerPath" r="5" cy="5" cx="5"></circle></marker><marker orient="auto" markerHeight="11" markerWidth="11" markerUnits="userSpaceOnUse" refY="5" refX="-1" viewBox="0 0 10 10" class="marker flowchart-v2" id="container_flowchart-v2-circleStart"><circle style="stroke-width: 1; stroke-dasharray: 1, 0;" class="arrowMarkerPath" r="5" cy="5" cx="5"></circle></marker><marker orient="auto" markerHeight="11" markerWidth="11" markerUnits="userSpaceOnUse" refY="5.2" refX="12" viewBox="0 0 11 11" class="marker cross flowchart-v2" id="container_flowchart-v2-crossEnd"><path style="stroke-width: 2; stroke-dasharray: 1, 0;" class="arrowMarkerPath" d="M 1,1 l 9,9 M 10,1 l -9,9"></path></marker><marker orient="auto" markerHeight="11" markerWidth="11" markerUnits="userSpaceOnUse" refY="5.2" refX="-1" viewBox="0 0 11 11" class="marker cross flowchart-v2" id="container_flowchart-v2-crossStart"><path style="stroke-width: 2; stroke-dasharray: 1, 0;" class="arrowMarkerPath" d="M 1,1 l 9,9 M 10,1 l -9,9"></path></marker><g class="root"><g class="clusters"><g data-look="classic" id="R" class="cluster"><rect height="876" width="1286.7265625" y="1040" x="8" style=""></rect><g transform="translate(555.81640625, 1040)" class="cluster-label"><foreignObject height="24" width="191.09375"><div style="display: table-cell; white-space: nowrap; line-height: 1.5; max-width: 200px; text-align: center;" xmlns="http://www.w3.org/1999/xhtml"><span class="nodeLabel"><p>Agent OS Runtime (online)</p></span></div></foreignObject></g></g><g data-look="classic" id="F" class="cluster"><rect height="909" width="455.3046875" y="8" x="500.15234375" style="fill:#fff5cc !important;stroke:#d4a000 !important;stroke-width:2px !important"></rect><g transform="translate(627.8046875, 8)" class="cluster-label"><foreignObject height="72" width="200"><div style="display: table; white-space: break-spaces; line-height: 1.5; max-width: 200px; text-align: center; width: 200px;" xmlns="http://www.w3.org/1999/xhtml"><span class="nodeLabel"><p>Feedback, Evals, and Learning Loop (offline/continuous)</p></span></div></foreignObject></g></g></g><g class="edgePaths"><path marker-end="url(#container_flowchart-v2-pointEnd)" style="" class="edge-thickness-normal edge-pattern-solid edge-thickness-normal edge-pattern-solid flowchart-link" id="L_OBS_EVAL_0" d="M715.762,147.5L715.762,153.75C715.762,160,715.762,172.5,715.762,184.333C715.762,196.167,715.762,207.333,715.762,212.917L715.762,218.5"></path><path marker-end="url(#container_flowchart-v2-pointEnd)" style="" class="edge-thickness-normal edge-pattern-solid edge-thickness-normal edge-pattern-solid flowchart-link" id="L_EVAL_DATA_0" d="M715.762,324.5L715.762,330.75C715.762,337,715.762,349.5,715.762,361.333C715.762,373.167,715.762,384.333,715.762,389.917L715.762,395.5"></path><path marker-end="url(#container_flowchart-v2-pointEnd)" style="" class="edge-thickness-normal edge-pattern-solid edge-thickness-normal edge-pattern-solid flowchart-link" id="L_DATA_TRAIN_0" d="M715.762,501.5L715.762,509.75C715.762,518,715.762,534.5,715.762,550.333C715.762,566.167,715.762,581.333,715.762,588.917L715.762,596.5"></path><path marker-end="url(#container_flowchart-v2-pointEnd)" style="" class="edge-thickness-normal edge-pattern-solid edge-thickness-normal edge-pattern-solid flowchart-link" id="L_TRAIN_REL_0" d="M715.762,702.5L715.762,708.75C715.762,715,715.762,727.5,715.762,739.333C715.762,751.167,715.762,762.333,715.762,767.917L715.762,773.5"></path><path marker-end="url(#container_flowchart-v2-pointEnd)" style="" class="edge-thickness-normal edge-pattern-solid edge-thickness-normal edge-pattern-solid flowchart-link" id="L_U_CX_0" d="M152.383,1368.5L152.383,1382.75C152.383,1397,152.383,1425.5,165.945,1447.664C179.508,1469.828,206.632,1485.656,220.195,1493.57L233.757,1501.484"></path><path marker-end="url(#container_flowchart-v2-pointEnd)" style="" class="edge-thickness-normal edge-pattern-solid edge-thickness-normal edge-pattern-solid flowchart-link" id="L_CX_LLM_0" d="M455.38,1503.5L469.811,1495.25C484.243,1487,513.106,1470.5,527.537,1443.5C541.969,1416.5,541.969,1379,541.969,1341.5C541.969,1304,541.969,1266.5,555.658,1239.834C569.348,1213.167,596.727,1197.335,610.416,1189.419L624.106,1181.502"></path><path marker-end="url(#container_flowchart-v2-pointEnd)" style="" class="edge-thickness-normal edge-pattern-solid edge-thickness-normal edge-pattern-solid flowchart-link" id="L_LLM_GOV_0" d="M845.762,1176.744L869.23,1185.454C892.698,1194.163,939.634,1211.581,963.102,1227.874C986.57,1244.167,986.57,1259.333,986.57,1266.917L986.57,1274.5"></path><path marker-end="url(#container_flowchart-v2-pointEnd)" style="" class="edge-thickness-normal edge-pattern-solid edge-thickness-normal edge-pattern-solid flowchart-link" id="L_GOV_EXE_0" d="M986.57,1404.5L986.57,1412.75C986.57,1421,986.57,1437.5,993.241,1457.421C999.912,1477.342,1013.254,1500.685,1019.924,1512.356L1026.595,1524.027"></path><path marker-end="url(#container_flowchart-v2-pointEnd)" style="" class="edge-thickness-normal edge-pattern-solid edge-thickness-normal edge-pattern-solid flowchart-link" id="L_LLM_MEM_0" d="M585.762,1171.141L556.363,1180.784C526.964,1190.427,468.165,1209.714,438.766,1228.94C409.367,1248.167,409.367,1267.333,409.367,1276.917L409.367,1286.5"></path><path marker-end="url(#container_flowchart-v2-pointEnd)" style="" class="edge-thickness-normal edge-pattern-solid edge-thickness-normal edge-pattern-solid flowchart-link" id="L_MEM_CX_0" d="M409.367,1392.5L409.367,1402.75C409.367,1413,409.367,1433.5,404.99,1451.421C400.613,1469.342,391.859,1484.684,387.482,1492.355L383.105,1500.026"></path><path marker-end="url(#container_flowchart-v2-pointEnd)" style="" class="edge-thickness-normal edge-pattern-solid edge-thickness-normal edge-pattern-solid flowchart-link" id="L_LLM_OUT_0" d="M709.262,1179.5L708.21,1187.75C707.159,1196,705.056,1212.5,704.005,1232.333C702.953,1252.167,702.953,1275.333,702.953,1286.917L702.953,1298.5"></path><path marker-end="url(#container_flowchart-v2-pointEnd)" style="" class="edge-thickness-normal edge-pattern-solid edge-thickness-normal edge-pattern-solid flowchart-link" id="L_EXE_TOOLS_0" d="M1050.871,1605.5L1050.871,1615.75C1050.871,1626,1050.871,1646.5,1050.871,1662.333C1050.871,1678.167,1050.871,1689.333,1050.871,1694.917L1050.871,1700.5"></path><path marker-end="url(#container_flowchart-v2-pointEnd)" style="" class="edge-thickness-normal edge-pattern-solid edge-thickness-normal edge-pattern-solid flowchart-link" id="L_EXE_LLM_0" d="M1094.325,1527.5L1107.974,1515.25C1121.623,1503,1148.921,1478.5,1162.57,1447.5C1176.219,1416.5,1176.219,1379,1176.219,1341.5C1176.219,1304,1176.219,1266.5,1121.794,1235.871C1067.369,1205.242,958.519,1181.485,904.095,1169.606L849.67,1157.727"></path><path marker-end="url(#container_flowchart-v2-pointEnd)" style="" class="edge-thickness-normal edge-pattern-dotted edge-thickness-normal edge-pattern-solid flowchart-link" id="L_LLM_OBS_0" d="M809.437,1077.5L820.917,1071.25C832.397,1065,855.357,1052.5,866.837,1036C878.316,1019.5,878.316,999,878.316,978.5C878.316,958,878.316,937.5,878.316,912.5C878.316,887.5,878.316,858,878.316,828.5C878.316,799,878.316,769.5,878.316,740C878.316,710.5,878.316,681,878.316,649.5C878.316,618,878.316,584.5,878.316,551C878.316,517.5,878.316,484,878.316,452.5C878.316,421,878.316,391.5,878.316,362C878.316,332.5,878.316,303,878.316,273.5C878.316,244,878.316,214.5,867.422,193.819C856.528,173.138,834.739,161.275,823.845,155.344L812.95,149.413"></path><path marker-end="url(#container_flowchart-v2-pointEnd)" style="" class="edge-thickness-normal edge-pattern-dotted edge-thickness-normal edge-pattern-solid flowchart-link" id="L_OBS_LLM_0" d="M622.086,147.5L610.606,153.75C599.126,160,576.167,172.5,564.687,193.5C553.207,214.5,553.207,244,553.207,273.5C553.207,303,553.207,332.5,553.207,362C553.207,391.5,553.207,421,553.207,452.5C553.207,484,553.207,517.5,553.207,551C553.207,584.5,553.207,618,553.207,649.5C553.207,681,553.207,710.5,553.207,740C553.207,769.5,553.207,799,553.207,828.5C553.207,858,553.207,887.5,553.207,912.5C553.207,937.5,553.207,958,553.207,978.5C553.207,999,553.207,1019.5,564.101,1035.681C574.996,1051.862,596.784,1063.725,607.679,1069.656L618.573,1075.587"></path><path marker-end="url(#container_flowchart-v2-pointEnd)" style="" class="edge-thickness-normal edge-pattern-solid edge-thickness-normal edge-pattern-solid flowchart-link" id="L_REL_LLM_0" d="M715.762,879.5L715.762,885.75C715.762,892,715.762,904.5,715.762,921C715.762,937.5,715.762,958,715.762,978.5C715.762,999,715.762,1019.5,715.762,1035.333C715.762,1051.167,715.762,1062.333,715.762,1067.917L715.762,1073.5"></path></g><g class="edgeLabels"><g class="edgeLabel"><g transform="translate(0, 0)" class="label"><foreignObject height="0" width="0"><div style="display: table-cell; white-space: nowrap; line-height: 1.5; max-width: 200px; text-align: center;" class="labelBkg" xmlns="http://www.w3.org/1999/xhtml"><span class="edgeLabel"></span></div></foreignObject></g></g><g class="edgeLabel"><g transform="translate(0, 0)" class="label"><foreignObject height="0" width="0"><div style="display: table-cell; white-space: nowrap; line-height: 1.5; max-width: 200px; text-align: center;" class="labelBkg" xmlns="http://www.w3.org/1999/xhtml"><span class="edgeLabel"></span></div></foreignObject></g></g><g class="edgeLabel"><g transform="translate(0, 0)" class="label"><foreignObject height="0" width="0"><div style="display: table-cell; white-space: nowrap; line-height: 1.5; max-width: 200px; text-align: center;" class="labelBkg" xmlns="http://www.w3.org/1999/xhtml"><span class="edgeLabel"></span></div></foreignObject></g></g><g class="edgeLabel"><g transform="translate(0, 0)" class="label"><foreignObject height="0" width="0"><div style="display: table-cell; white-space: nowrap; line-height: 1.5; max-width: 200px; text-align: center;" class="labelBkg" xmlns="http://www.w3.org/1999/xhtml"><span class="edgeLabel"></span></div></foreignObject></g></g><g class="edgeLabel"><g transform="translate(0, 0)" class="label"><foreignObject height="0" width="0"><div style="display: table-cell; white-space: nowrap; line-height: 1.5; max-width: 200px; text-align: center;" class="labelBkg" xmlns="http://www.w3.org/1999/xhtml"><span class="edgeLabel"></span></div></foreignObject></g></g><g class="edgeLabel"><g transform="translate(0, 0)" class="label"><foreignObject height="0" width="0"><div style="display: table-cell; white-space: nowrap; line-height: 1.5; max-width: 200px; text-align: center;" class="labelBkg" xmlns="http://www.w3.org/1999/xhtml"><span class="edgeLabel"></span></div></foreignObject></g></g><g class="edgeLabel"><g transform="translate(0, 0)" class="label"><foreignObject height="0" width="0"><div style="display: table-cell; white-space: nowrap; line-height: 1.5; max-width: 200px; text-align: center;" class="labelBkg" xmlns="http://www.w3.org/1999/xhtml"><span class="edgeLabel"></span></div></foreignObject></g></g><g class="edgeLabel"><g transform="translate(0, 0)" class="label"><foreignObject height="0" width="0"><div style="display: table-cell; white-space: nowrap; line-height: 1.5; max-width: 200px; text-align: center;" class="labelBkg" xmlns="http://www.w3.org/1999/xhtml"><span class="edgeLabel"></span></div></foreignObject></g></g><g transform="translate(409.3671875, 1229)" class="edgeLabel"><g transform="translate(-21.9453125, -12)" class="label"><foreignObject height="24" width="43.890625"><div style="display: table-cell; white-space: nowrap; line-height: 1.5; max-width: 200px; text-align: center;" class="labelBkg" xmlns="http://www.w3.org/1999/xhtml"><span class="edgeLabel"><p>writes</p></span></div></foreignObject></g></g><g transform="translate(409.3671875, 1454)" class="edgeLabel"><g transform="translate(-30.1953125, -12)" class="label"><foreignObject height="24" width="60.390625"><div style="display: table-cell; white-space: nowrap; line-height: 1.5; max-width: 200px; text-align: center;" class="labelBkg" xmlns="http://www.w3.org/1999/xhtml"><span class="edgeLabel"><p>retrieval</p></span></div></foreignObject></g></g><g class="edgeLabel"><g transform="translate(0, 0)" class="label"><foreignObject height="0" width="0"><div style="display: table-cell; white-space: nowrap; line-height: 1.5; max-width: 200px; text-align: center;" class="labelBkg" xmlns="http://www.w3.org/1999/xhtml"><span class="edgeLabel"></span></div></foreignObject></g></g><g class="edgeLabel"><g transform="translate(0, 0)" class="label"><foreignObject height="0" width="0"><div style="display: table-cell; white-space: nowrap; line-height: 1.5; max-width: 200px; text-align: center;" class="labelBkg" xmlns="http://www.w3.org/1999/xhtml"><span class="edgeLabel"></span></div></foreignObject></g></g><g transform="translate(1176.21875, 1341.5)" class="edgeLabel"><g transform="translate(-47.015625, -12)" class="label"><foreignObject height="24" width="94.03125"><div style="display: table-cell; white-space: nowrap; line-height: 1.5; max-width: 200px; text-align: center;" class="labelBkg" xmlns="http://www.w3.org/1999/xhtml"><span class="edgeLabel"><p>observations</p></span></div></foreignObject></g></g><g transform="translate(878.31640625, 551)" class="edgeLabel"><g transform="translate(-57.140625, -12)" class="label"><foreignObject height="24" width="114.28125"><div style="display: table-cell; white-space: nowrap; line-height: 1.5; max-width: 200px; text-align: center;" class="labelBkg" xmlns="http://www.w3.org/1999/xhtml"><span class="edgeLabel"><p>emits telemetry</p></span></div></foreignObject></g></g><g transform="translate(553.20703125, 551)" class="edgeLabel"><g transform="translate(-33.0546875, -12)" class="label"><foreignObject height="24" width="66.109375"><div style="display: table-cell; white-space: nowrap; line-height: 1.5; max-width: 200px; text-align: center;" class="labelBkg" xmlns="http://www.w3.org/1999/xhtml"><span class="edgeLabel"><p>feedback</p></span></div></foreignObject></g></g><g transform="translate(715.76171875, 978.5)" class="edgeLabel"><g transform="translate(-100, -24)" class="label"><foreignObject height="48" width="200"><div style="display: table; white-space: break-spaces; line-height: 1.5; max-width: 200px; text-align: center; width: 200px;" class="labelBkg" xmlns="http://www.w3.org/1999/xhtml"><span class="edgeLabel"><p>ships models/prompts/policies</p></span></div></foreignObject></g></g></g><g class="nodes"><g transform="translate(715.76171875, 96.5)" id="flowchart-OBS-0" class="node default"><rect height="102" width="247.953125" y="-51" x="-123.9765625" style="" class="basic label-container"></rect><g transform="translate(-93.9765625, -36)" style="" class="label"><rect></rect><foreignObject height="72" width="187.953125"><div style="display: table-cell; white-space: nowrap; line-height: 1.5; max-width: 200px; text-align: center;" xmlns="http://www.w3.org/1999/xhtml"><span class="nodeLabel"><p>Telemetry &amp; Traces<br/>step logs • tool calls<br/>costs • latency • outcomes</p></span></div></foreignObject></g></g><g transform="translate(715.76171875, 273.5)" id="flowchart-EVAL-1" class="node default"><rect height="102" width="245.109375" y="-51" x="-122.5546875" style="" class="basic label-container"></rect><g transform="translate(-92.5546875, -36)" style="" class="label"><rect></rect><foreignObject height="72" width="185.109375"><div style="display: table-cell; white-space: nowrap; line-height: 1.5; max-width: 200px; text-align: center;" xmlns="http://www.w3.org/1999/xhtml"><span class="nodeLabel"><p>Evals<br/>benchmarks • regressions<br/>safety tests</p></span></div></foreignObject></g></g><g transform="translate(715.76171875, 450.5)" id="flowchart-DATA-2" class="node default"><rect height="102" width="190.453125" y="-51" x="-95.2265625" style="" class="basic label-container"></rect><g transform="translate(-65.2265625, -36)" style="" class="label"><rect></rect><foreignObject height="72" width="130.453125"><div style="display: table-cell; white-space: nowrap; line-height: 1.5; max-width: 200px; text-align: center;" xmlns="http://www.w3.org/1999/xhtml"><span class="nodeLabel"><p>Datasets<br/>gold tasks • labels<br/>synthetic traces</p></span></div></foreignObject></g></g><g transform="translate(715.76171875, 651.5)" id="flowchart-TRAIN-3" class="node default"><rect height="102" width="201.203125" y="-51" x="-100.6015625" style="" class="basic label-container"></rect><g transform="translate(-70.6015625, -36)" style="" class="label"><rect></rect><foreignObject height="72" width="141.203125"><div style="display: table-cell; white-space: nowrap; line-height: 1.5; max-width: 200px; text-align: center;" xmlns="http://www.w3.org/1999/xhtml"><span class="nodeLabel"><p>Learning<br/>prompt/tool tuning<br/>SFT • RL • routing</p></span></div></foreignObject></g></g><g transform="translate(715.76171875, 828.5)" id="flowchart-REL-4" class="node default"><rect height="102" width="226.171875" y="-51" x="-113.0859375" style="" class="basic label-container"></rect><g transform="translate(-83.0859375, -36)" style="" class="label"><rect></rect><foreignObject height="72" width="166.171875"><div style="display: table-cell; white-space: nowrap; line-height: 1.5; max-width: 200px; text-align: center;" xmlns="http://www.w3.org/1999/xhtml"><span class="nodeLabel"><p>Versioned Releases<br/>models • prompts<br/>policies • tool schemas</p></span></div></foreignObject></g></g><g transform="translate(152.3828125, 1341.5)" id="flowchart-U-5" class="node default"><rect height="54" width="208.765625" y="-27" x="-104.3828125" style="" class="basic label-container"></rect><g transform="translate(-74.3828125, -12)" style="" class="label"><rect></rect><foreignObject height="24" width="148.765625"><div style="display: table-cell; white-space: nowrap; line-height: 1.5; max-width: 200px; text-align: center;" xmlns="http://www.w3.org/1999/xhtml"><span class="nodeLabel"><p>User / Goal / Trigger</p></span></div></foreignObject></g></g><g transform="translate(345.17578125, 1566.5)" id="flowchart-CX-6" class="node default"><rect height="126" width="260" y="-63" x="-130" style="" class="basic label-container"></rect><g transform="translate(-100, -48)" style="" class="label"><rect></rect><foreignObject height="96" width="200"><div style="display: table; white-space: break-spaces; line-height: 1.5; max-width: 200px; text-align: center; width: 200px;" xmlns="http://www.w3.org/1999/xhtml"><span class="nodeLabel"><p>Context Assembly<br/>user input • retrieved memory<br/>tool + policy context</p></span></div></foreignObject></g></g><g transform="translate(715.76171875, 1128.5)" id="flowchart-LLM-7" class="node default"><rect height="102" width="260" y="-51" x="-130" style="stroke-width:2px !important;stroke:#6b6bff !important" class="basic label-container"></rect><g transform="translate(-100, -36)" style="" class="label"><rect></rect><foreignObject height="72" width="200"><div style="display: table; white-space: break-spaces; line-height: 1.5; max-width: 200px; text-align: center; width: 200px;" xmlns="http://www.w3.org/1999/xhtml"><span class="nodeLabel"><p>LLM<br/>(planning + action selection)</p></span></div></foreignObject></g></g><g transform="translate(986.5703125, 1341.5)" id="flowchart-GOV-8" class="node default"><rect height="126" width="205.265625" y="-63" x="-102.6328125" style="" class="basic label-container"></rect><g transform="translate(-72.6328125, -48)" style="" class="label"><rect></rect><foreignObject height="96" width="145.265625"><div style="display: table-cell; white-space: nowrap; line-height: 1.5; max-width: 200px; text-align: center;" xmlns="http://www.w3.org/1999/xhtml"><span class="nodeLabel"><p>Governance / Policy<br/>Security • Privacy<br/>Approvals • RBAC<br/>Audit</p></span></div></foreignObject></g></g><g transform="translate(1050.87109375, 1566.5)" id="flowchart-EXE-9" class="node default"><rect height="78" width="257.6875" y="-39" x="-128.84375" style="" class="basic label-container"></rect><g transform="translate(-98.84375, -24)" style="" class="label"><rect></rect><foreignObject height="48" width="197.6875"><div style="display: table-cell; white-space: nowrap; line-height: 1.5; max-width: 200px; text-align: center;" xmlns="http://www.w3.org/1999/xhtml"><span class="nodeLabel"><p>Tool Execution<br/>router • adapters • sandbox</p></span></div></foreignObject></g></g><g transform="translate(409.3671875, 1341.5)" id="flowchart-MEM-11" class="node default"><rect height="102" width="185.203125" y="-51" x="-92.6015625" style="" class="basic label-container"></rect><g transform="translate(-62.6015625, -36)" style="" class="label"><rect></rect><foreignObject height="72" width="125.203125"><div style="display: table-cell; white-space: nowrap; line-height: 1.5; max-width: 200px; text-align: center;" xmlns="http://www.w3.org/1999/xhtml"><span class="nodeLabel"><p>State<br/>scratch • memory<br/>checkpoints</p></span></div></foreignObject></g></g><g transform="translate(702.953125, 1341.5)" id="flowchart-OUT-15" class="node default"><rect height="78" width="241.96875" y="-39" x="-120.984375" style="" class="basic label-container"></rect><g transform="translate(-90.984375, -24)" style="" class="label"><rect></rect><foreignObject height="48" width="181.96875"><div style="display: table-cell; white-space: nowrap; line-height: 1.5; max-width: 200px; text-align: center;" xmlns="http://www.w3.org/1999/xhtml"><span class="nodeLabel"><p>Outputs<br/>(UI / messages / actions)</p></span></div></foreignObject></g></g><g transform="translate(1050.87109375, 1791.5)" id="flowchart-TOOLS-17" class="node default"><rect height="174" width="260" y="-87" x="-130" style="" class="basic label-container"></rect><g transform="translate(-100, -72)" style="" class="label"><rect></rect><foreignObject height="144" width="200"><div style="display: table; white-space: break-spaces; line-height: 1.5; max-width: 200px; text-align: center; width: 200px;" xmlns="http://www.w3.org/1999/xhtml"><span class="nodeLabel"><p>Tools / Surfaces (environment)<br/>APIs &amp; SaaS • Browser • Desktop/OS<br/>Files/DB • Other agents/models</p></span></div></foreignObject></g></g></g></g></g></svg>